<?xml version="1.0" standalone="no"?>
<!DOCTYPE svg PUBLIC "-//W3C//DTD SVG 20010904//EN"
"http://www.w3.org/TR/2001/REC-SVG-20010904/DTD/svg10.dtd">
<svg version="1.0" xmlns="http://www.w3.org/2000/svg"
width="512.000000pt" height="512.000000pt" viewBox="0 0 512.000000 512.000000"
preserveAspectRatio="xMidYMid meet">

<g transform="translate(0.000000,512.000000) scale(0.100000,-0.100000)"
fill="#808080" stroke="none">
<path d="M2370 5114 c-633 -56 -1190 -314 -1627 -756 -395 -398 -631 -874
-720 -1448 -24 -161 -24 -539 1 -700 82 -532 305 -1007 646 -1374 235 -253
477 -433 774 -576 243 -118 466 -188 736 -232 195 -31 565 -31 759 0 274 45
489 112 727 226 531 257 942 666 1194 1190 120 248 188 466 232 741 31 197 31
558 0 752 -62 380 -200 738 -400 1038 -406 607 -1025 1001 -1752 1116 -121 19
-460 33 -570 23z m530 -613 c300 -53 592 -178 840 -362 109 -81 318 -290 399
-399 183 -247 307 -534 363 -840 18 -95 21 -154 21 -340 0 -186 -3 -245 -21
-340 -56 -307 -183 -598 -370 -849 -76 -102 -287 -312 -392 -390 -596 -441
-1383 -514 -2045 -191 -566 277 -962 803 -1077 1430 -31 166 -31 514 0 680
159 866 847 1513 1722 1620 123 15 429 5 560 -19z"/>
<path d="M2260 4126 l0 -184 -65 -11 c-258 -45 -527 -213 -656 -409 -140 -213
-158 -491 -47 -721 51 -108 156 -215 272 -280 94 -54 265 -113 396 -139 l95
-18 3 -313 2 -312 -22 7 c-147 45 -249 165 -293 342 l-17 72 -275 0 -276 0 7
-64 c9 -90 42 -208 81 -293 123 -265 396 -493 690 -573 44 -12 86 -24 93 -26
9 -2 12 -50 12 -194 l0 -190 260 0 260 0 0 189 0 189 58 6 c217 26 475 160
627 329 166 182 244 411 216 630 -22 172 -74 281 -185 392 -139 139 -345 226
-625 266 l-91 13 0 288 0 288 28 -6 c102 -24 185 -93 237 -197 19 -38 35 -78
35 -88 0 -50 -7 -49 283 -49 l270 0 -6 73 c-29 380 -340 702 -757 781 -45 9
-84 16 -86 16 -2 0 -4 83 -4 185 l0 185 -260 0 -260 0 0 -184z m0 -961 l0
-235 -33 0 c-105 0 -214 74 -237 162 -24 85 21 184 111 248 29 21 122 59 147
60 9 0 12 -53 12 -235z m696 -919 c75 -25 137 -76 168 -137 41 -83 31 -157
-32 -230 -46 -53 -95 -83 -186 -114 -128 -43 -116 -67 -116 243 l0 268 59 -7
c32 -3 80 -14 107 -23z"/>
</g>
</svg>
